<svg id="Layer_1" data-name="Layer 1" xmlns="http://www.w3.org/2000/svg" width="697" height="697" viewBox="0 0 697 697"><defs><style>.cls-1{fill:#0fc862;}.cls-2{fill:#47c97c;}.cls-3{fill:#42c778;}.cls-4{fill:#17af54;}.cls-5{fill:#fafefc;}.cls-6{fill:#fafefb;}.cls-7{fill:#f9fdfc;}.cls-8{fill:none;}</style></defs><title>line-man-logo</title><path class="cls-1" d="M91.65,101.42l1.84-1.85a11.42,11.42,0,0,0,9-9l2.19-1.74,1.47-1.37a1.44,1.44,0,0,1,1.14-.93c4.43.36,7.08-3,10.21-5.12,24.56-16.56,51.15-27.22,81.12-27.25C315.44,54,432.22,54.23,549,54c28.51-.07,54.32,8.25,77.92,23.27,42.45,27,64.22,66.91,70,116.22q0,181.5,0,363c-2.7,21-7.61,41.32-18.12,60.11-3.26,5.81-8.74,10.79-8.78,18.23a1.06,1.06,0,0,1-.68,1c-3.74.38-5.66,3.3-7.73,5.81C633.26,676,596.78,695.25,552.3,695.53c-118.62.75-237.23.3-355.85.17-7.77,0-15.85-.18-23.26-2.21-30.9-8.44-58.76-22.47-80.73-46.6-3.32-3.65-4.65-9.4-10.58-10.42l.55-.63-.57.61c1.1-5.73-4-8.52-6.45-12.27-17.79-27.78-21.88-58.89-21.7-90.62.64-110.92-1.69-221.84,1.11-332.77.76-30,9.39-55.93,25-80.78C83.73,113.82,91.53,110,91.65,101.42ZM281.3,357.81c-3.26.13-4.45-2.82-6.22-4.57-18.86-18.69-37.47-37.62-56.37-56.26-3.92-3.87-7.15-8.72-12.5-11.27a8.57,8.57,0,0,0-.83,2.18c0,75.18-.22,150.36.1,225.54.06,15.85,13.36,29.93,28.92,32.89,22.74,4.31,39-7.51,46.21-33.49l3.05,7.41c0-53.57,0-104.73,0-155.9C283.67,361.85,283.39,359.52,281.3,357.81ZM205.2,240.1c-.35,11,4.17,20,11.7,27.54q76.47,76.55,152.91,153.12c4.92,5,7.34,3.55,11.34-.51,18.21-18.5,36.66-36.76,55-55.12,32.65-32.66,65.39-65.23,97.89-98.05,15.91-16.08,15.13-40-1.26-54.66-15.94-14.28-37.44-12.69-54.2,4.06Q429.92,265.16,381.4,314c-4.55,4.61-7.28,5.39-12.06.12-9.11-10-19.06-19.33-28.66-28.94-23.47-23.47-46.87-47-70.46-70.38-12.13-12-26.71-15.54-42.41-8.76C213.33,212.24,205.61,224,205.2,240.1Zm339,46c-1.89-.42-2.72,1.15-3.69,2.12q-33.37,33.21-66.71,66.47c-2.84,2.82-3.62,5.94-3.61,9.75.07,47.7,0,95.39.12,143.09,0,7.58,1.33,15,5.5,21.64A37.56,37.56,0,0,0,519,545.59c15.81-4.62,26-18.49,26-36.11q.13-108.68,0-217.34C545.09,290.15,545.8,288,544.21,286.15Z" transform="translate(-26.5 -26.5)"/><path class="cls-2" d="M696.91,193.47c-5.77-49.31-27.54-89.19-70-116.22C603.32,62.23,577.51,53.91,549,54c-116.78.25-233.56,0-350.35.16-30,0-56.56,10.69-81.12,27.25-3.13,2.1-5.78,5.48-10.21,5.12C126,68.66,148.93,59.37,173.59,53.65c11.23-2.6,22.68-2.93,34.19-2.92q169.77.12,339.55,0c77.65,0,145,61.46,152,138.67a21.41,21.41,0,0,1-.54,4.38Z" transform="translate(-26.5 -26.5)"/><path class="cls-3" d="M81.88,636.47c5.93,1,7.26,6.77,10.58,10.42,22,24.13,49.83,38.16,80.73,46.6,7.41,2,15.49,2.2,23.26,2.21,118.62.13,237.23.58,355.85-.17,44.48-.28,81-19.56,109.34-53.93,2.07-2.51,4-5.43,7.73-5.81-16.84,26.12-41.27,42.6-69.53,53.79a142.59,142.59,0,0,1-53.07,9.66c-114.91-.12-229.83.27-344.75-.23-48.18-.2-87.14-20.83-117.62-57.83A26.83,26.83,0,0,1,81.88,636.47Z" transform="translate(-26.5 -26.5)"/><path class="cls-3" d="M91.65,101.42c-.12,8.53-7.92,12.4-11.81,18.59-15.63,24.85-24.26,50.82-25,80.78-2.8,110.93-.47,221.85-1.11,332.77-.18,31.73,3.91,62.84,21.7,90.62,2.4,3.75,7.55,6.54,6.45,12.27-16.79-18.92-24.34-41.94-29.09-66.14a135.88,135.88,0,0,1-2.11-26.13c.09-115-.24-230,.37-345.07.2-36.67,14.47-68.69,38.32-96.42A7.82,7.82,0,0,1,91.65,101.42Z" transform="translate(-26.5 -26.5)"/><path class="cls-4" d="M696.91,193.47l1.88.34c.14,15.4.39,30.79.39,46.18q0,152.64,0,305.28c0,3.61-.25,7.23-.38,10.84l-1.81.36Q696.94,375,696.91,193.47Z" transform="translate(-26.5 -26.5)"/><path class="cls-2" d="M697,556.47l1.81-.36c.19,22.87-7.61,43.5-18,63.32-2.9,5.52-5.33,11.5-10.68,15.38,0-7.44,5.52-12.42,8.78-18.23C689.34,597.79,694.25,577.51,697,556.47Z" transform="translate(-26.5 -26.5)"/><path class="cls-3" d="M102.52,90.55a11.42,11.42,0,0,1-9,9C95.29,95.35,98.57,92.61,102.52,90.55Z" transform="translate(-26.5 -26.5)"/><path class="cls-2" d="M106.18,87.44l-1.47,1.37Z" transform="translate(-26.5 -26.5)"/><path class="cls-5" d="M205.2,240.1c.41-16.09,8.13-27.86,22.61-34.11,15.7-6.78,30.28-3.24,42.41,8.76,23.59,23.36,47,46.91,70.46,70.38,9.6,9.61,19.55,18.9,28.66,28.94,4.78,5.27,7.51,4.49,12.06-.12q48.39-48.93,97.2-97.47c16.76-16.75,38.26-18.34,54.2-4.06C549.19,227.1,550,251,534.06,267.08c-32.5,32.82-65.24,65.39-97.89,98.05-18.36,18.36-36.81,36.62-55,55.12-4,4.06-6.42,5.47-11.34.51Q293.6,344,216.9,267.64C209.37,260.1,204.85,251.12,205.2,240.1Z" transform="translate(-26.5 -26.5)"/><path class="cls-6" d="M280.61,512.83c-7.16,26-23.47,37.8-46.21,33.49-15.56-3-28.86-17-28.92-32.89-.32-75.18-.13-150.36-.1-225.54a8.57,8.57,0,0,1,.83-2.18c5.35,2.55,8.58,7.4,12.5,11.27,18.9,18.64,37.51,37.57,56.37,56.26,1.77,1.75,3,4.7,6.23,4.57a1.11,1.11,0,0,0,0,1.38,2.15,2.15,0,0,0-.58,2.9C279.76,412.34,279.93,462.58,280.61,512.83Z" transform="translate(-26.5 -26.5)"/><path class="cls-7" d="M544.21,286.15c1.59,1.81.88,4,.88,6q.06,108.67,0,217.34c0,17.62-10.23,31.49-26,36.11a37.56,37.56,0,0,1-43.22-16.37c-4.17-6.61-5.48-14.06-5.5-21.64-.12-47.7-.05-95.39-.12-143.09,0-3.81.77-6.93,3.61-9.75q33.44-33.17,66.71-66.47C541.49,287.3,542.32,285.73,544.21,286.15Z" transform="translate(-26.5 -26.5)"/><path class="cls-4" d="M280.61,512.83c-.68-50.25-.85-100.49.08-150.74.19-1,.39-1.93.58-2.9a1.11,1.11,0,0,1,0-1.38c2.08,1.71,2.36,4,2.36,6.53,0,51.17,0,102.33,0,155.9Z" transform="translate(-26.5 -26.5)"/><path class="cls-1" d="M281.27,359.19c-.19,1-.39,1.93-.58,2.9A2.15,2.15,0,0,1,281.27,359.19Z" transform="translate(-26.5 -26.5)"/><rect class="cls-8" width="697" height="697"/></svg>